<?xml version="1.0" encoding="UTF-8" standalone="no"?>
<!-- Created with Inkscape (http://www.inkscape.org/) -->

<svg
   version="1.1"
   id="svg1"
   width="960"
   height="1013"
   viewBox="0 0 960 1013"
   sodipodi:docname="logo.png"
   inkscape:export-filename="logotop.png"
   inkscape:export-xdpi="96"
   inkscape:export-ydpi="96"
   xmlns:inkscape="http://www.inkscape.org/namespaces/inkscape"
   xmlns:sodipodi="http://sodipodi.sourceforge.net/DTD/sodipodi-0.dtd"
   xmlns="http://www.w3.org/2000/svg"
   xmlns:svg="http://www.w3.org/2000/svg">
  <defs
     id="defs1">
    <inkscape:path-effect
       effect="spiro"
       id="path-effect26"
       is_visible="true"
       lpeversion="1" />
    <inkscape:path-effect
       effect="spiro"
       id="path-effect25"
       is_visible="true"
       lpeversion="1" />
    <inkscape:path-effect
       effect="spiro"
       id="path-effect24"
       is_visible="true"
       lpeversion="1" />
    <inkscape:path-effect
       effect="spiro"
       id="path-effect23"
       is_visible="true"
       lpeversion="1" />
    <inkscape:path-effect
       effect="spiro"
       id="path-effect22"
       is_visible="true"
       lpeversion="1" />
  </defs>
  <sodipodi:namedview
     id="namedview1"
     pagecolor="#ffffff"
     bordercolor="#000000"
     borderopacity="0.25"
     inkscape:showpageshadow="2"
     inkscape:pageopacity="0.0"
     inkscape:pagecheckerboard="0"
     inkscape:deskcolor="#d1d1d1"
     inkscape:zoom="0.84995064"
     inkscape:cx="564.73868"
     inkscape:cy="482.96922"
     inkscape:window-width="1920"
     inkscape:window-height="1057"
     inkscape:window-x="-8"
     inkscape:window-y="-8"
     inkscape:window-maximized="1"
     inkscape:current-layer="layer1" />
  <g
     inkscape:groupmode="layer"
     id="layer1"
     inkscape:label="Image 1"
     style="display:inline">
    <path
       style="opacity:1;fill:#000000;fill-opacity:1;stroke:#000000;stroke-width:1;stroke-dasharray:none;stroke-opacity:1"
       d="m 528.91546,223.12643 c -55.71428,-5.84563 -113.2306,0.24439 -164.77666,22.18194 -44.10162,18.76926 -83.00531,48.76793 -114.71255,84.71079 -15.0837,17.09866 -28.66752,35.64791 -38.99808,55.97429 -3.74463,7.36792 -7.11762,15.22947 -7.17551,23.49415 -0.0289,4.13235 0.80331,8.30839 2.72551,11.96657 1.92221,3.65817 4.97261,6.77209 8.74018,8.46988 4.80896,2.16708 10.41748,1.90785 15.49463,0.47787 5.07716,-1.42999 9.76594,-3.94801 14.50711,-6.25964 40.52861,-19.76036 86.51701,-25.03759 131.57164,-26.804 45.05463,-1.76641 90.46381,-0.34193 134.91442,-7.9039 25.44801,-4.32923 51.13669,-11.97089 71.18061,-28.23694 11.67309,-9.47296 21.15233,-21.78919 26.56798,-35.81306 5.62889,-14.57606 6.74051,-30.92059 2.76358,-46.03118 -3.97694,-15.11059 -13.08345,-28.88422 -25.6592,-38.15765 -16.2755,-12.00165 -37.03201,-15.95897 -57.14366,-18.06912 z"
       id="path22"
       inkscape:path-effect="#path-effect22"
       inkscape:original-d="m 528.91546,223.12643 c -40.77356,-1.99101 -123.69586,15.95999 -164.77666,22.18194 -38.6943,5.86049 -93.10523,52.29982 -114.71255,84.71079 -6.82301,10.23451 -31.31554,65.40121 -38.99808,55.97429 -6.27211,-7.69623 -8.83562,37.36769 4.29018,43.9306 26.02249,13.01126 5.92644,1.09688 30.00174,-5.78177 27.91984,-7.9771 250.42138,-13.05301 266.48606,-34.7079 36.23849,-48.8488 86.26611,15.06203 71.18061,-28.23694 -12.67838,-36.38994 53.95307,-59.72179 26.56798,-35.81306 -20.06846,17.52089 -0.59186,-58.5259 -22.89562,-84.18883 -17.6212,-20.27514 -29.76616,-18.06912 -57.14366,-18.06912 z"
       sodipodi:nodetypes="csssssssssc" />
    <path
       style="opacity:1;fill:#000000;fill-opacity:1;stroke:#000000;stroke-width:1;stroke-dasharray:none;stroke-opacity:1"
       d="m 222.95412,551.79674 c -4.44764,2.41862 -9.00308,4.69682 -13.83731,6.20065 -4.83423,1.50383 -9.98364,2.21414 -14.98789,1.44686 -8.50462,-1.30397 -16.07657,-6.96532 -20.36091,-14.42677 -4.28435,-7.46145 -5.39695,-16.54079 -3.75814,-24.98728 2.47948,-12.7793 10.84053,-23.72827 20.58943,-32.35482 14.60814,-12.92636 32.49642,-21.54039 50.59118,-28.8252 10.3048,-4.14863 20.75656,-7.91991 31.17828,-11.7654 12.98132,-4.78995 25.9602,-9.70899 39.41406,-12.94192 8.15344,-1.95926 16.44231,-3.28944 24.70731,-4.70615 12.71321,-2.17919 25.40592,-4.56945 38.23752,-5.88271 18.93849,-1.93828 38.02633,-1.51622 57.06213,-1.7648 22.74952,-0.29708 45.49095,-1.555 68.23926,-1.17654 12.56092,0.20898 25.17677,0.91433 37.64924,-0.58827 15.39171,-1.85428 30.36694,-7.10808 43.53194,-15.295 7.83168,-4.87029 15.08915,-10.83352 20.58943,-18.23635 5.4027,-7.27149 8.96805,-15.7166 12.35366,-24.11906 5.06712,-12.57566 9.88436,-25.39877 11.76539,-38.82578 1.09937,-7.84743 1.18969,-15.8644 3.16078,-23.53939 0.98554,-3.8375 2.44998,-7.58088 4.63965,-10.88285 2.18966,-3.30198 5.13099,-6.15405 8.67111,-7.93316 4.66123,-2.34252 10.20126,-2.70729 15.25051,-1.39601 5.04926,1.31128 9.6095,4.22737 13.23973,7.97382 7.26045,7.49291 10.68103,17.89157 12.68862,28.13009 3.29779,16.81836 3.37871,34.18287 1.17654,51.17944 -2.09242,16.14955 -6.29962,32.18863 -14.11847,46.47329 -8.79312,16.0646 -21.85783,29.40411 -35.88443,41.17886 -16.19047,13.59123 -34.12155,25.50768 -54.12079,32.35482 -36.08756,12.35529 -75.41925,7.32441 -113.536,5.88269 -38.05847,-1.43952 -76.41584,0.89096 -113.536,9.41231 -17.48844,4.01467 -34.63218,9.38357 -51.76772,14.70674 -17.20479,5.34468 -34.51784,10.68718 -50.59118,18.82462 -9.63597,4.87839 -18.74863,10.72355 -28.23693,15.88327 z"
       id="path23"
       inkscape:path-effect="#path-effect23"
       inkscape:original-d="m 222.95412,551.79674 c -8.33399,5.48633 -25.13175,18.72787 -28.8252,7.64751 -4.4114,-13.23418 -29.25427,-26.57599 -24.11905,-39.41405 3.43921,-8.59802 14.98911,-24.88772 20.58943,-32.35482 8.60325,-11.47099 36.54461,-23.71736 50.59118,-28.8252 11.00806,-4.00293 19.90027,-8.9459 31.17828,-11.7654 12.53255,-3.13314 27.06145,-9.4126 39.41406,-12.94192 7.01535,-2.00439 17.78357,-2.10975 24.70731,-4.70615 12.69142,-4.75929 24.69103,-4.75383 38.23752,-5.88271 20.3552,-1.69626 36.60979,-0.79088 57.06213,-1.7648 22.75301,-1.08348 45.52727,0.33759 68.23926,-1.17654 12.52622,-0.83508 25.17054,0.6596 37.64924,-0.58827 13.59193,-1.35919 30.52596,-10.95968 43.53194,-15.295 9.24625,-3.08208 15.06039,-10.49569 20.58943,-18.23635 5.58416,-7.81782 9.90693,-14.33215 12.35366,-24.11906 3.64048,-14.56192 9.29904,-24.0277 11.76539,-38.82578 3.02208,-18.13251 -5.90502,-37.88009 16.47154,-42.3554 11.31278,-2.26256 34.62462,26.51509 41.17886,34.7079 3.74263,4.67828 3.76669,45.81008 1.17654,51.17944 -21.01704,43.56829 2.26723,21.89475 -14.11847,46.47329 -7.38652,11.07978 -27.13452,31.08281 -35.88443,41.17886 -19.91241,22.97586 -23.63834,23.21008 -54.12079,32.35482 -36.54134,10.9624 -75.89465,3.7915 -113.536,5.88269 -38.21161,2.12287 -75.65497,3.58446 -113.536,9.41231 -27.02037,4.15698 -79.19338,12.62073 -51.76772,14.70674 20.33549,1.54673 -54.0595,0.96575 -50.59118,18.82462 4.92027,25.33507 -17.91029,9.68729 -28.23693,15.88327 z"
       sodipodi:nodetypes="csssssssssssssssssssssssssc" />
    <path
       style="opacity:1;fill:#000000;fill-opacity:1;stroke:#000000;stroke-width:1;stroke-dasharray:none;stroke-opacity:1"
       d="m 760.6324,405.90593 c -8.63302,-6.45876 -19.6899,-9.5937 -30.42817,-8.62725 -10.73827,0.96644 -21.05772,6.02525 -28.39877,13.92167 -5.49268,5.90821 -9.26285,13.2029 -12.42135,20.62586 -3.15851,7.42296 -5.77929,15.08145 -9.34462,22.31781 -13.15673,26.70352 -38.59227,45.93725 -66.39195,56.58413 -27.79967,10.64687 -57.9705,13.48582 -87.73465,14.0082 -35.29699,0.61949 -70.63577,-1.87241 -105.8885,0 -28.32125,1.50425 -56.45531,5.82411 -84.12253,12.05953 -49.10161,11.06613 -98.92879,29.55275 -132.65476,66.91565 -8.05508,8.92372 -15.12172,18.91926 -19.41289,30.14881 -3.19212,8.35345 -4.7986,17.53036 -3.03321,26.29695 0.88269,4.3833 2.61052,8.61605 5.21736,12.24879 2.60685,3.63273 6.10537,6.6516 10.1695,8.51581 4.40437,2.02028 9.38143,2.64715 14.20312,2.16619 4.82169,-0.48096 9.49642,-2.03853 13.834,-4.19849 8.67515,-4.31991 15.94089,-10.94345 23.43646,-17.08645 17.76292,-14.55761 37.41005,-26.7973 58.23868,-36.47271 27.40258,-12.72917 56.82066,-21.00323 86.76974,-25.00145 36.79361,-4.91197 74.09214,-3.40316 111.21216,-3.37102 37.12003,0.0321 74.7321,-1.50069 110.27129,-12.21812 40.02229,-12.06938 76.01673,-35.49202 106.47677,-64.12137 12.60529,-11.84769 24.41963,-24.70905 33.53136,-39.41406 3.37587,-5.44817 6.37221,-11.13802 8.82404,-17.05981 4.61284,-11.14115 7.28469,-23.31962 5.8827,-35.29617 -0.95295,-8.14063 -3.79378,-16.05435 -8.23578,-22.9425 z"
       id="path24"
       inkscape:path-effect="#path-effect24"
       inkscape:original-d="m 760.6324,405.90593 c -14.63298,6.87257 -49.70444,-8.38934 -58.82694,5.29442 -5.09286,7.63928 -16.38357,34.87006 -21.76597,42.94367 -23.48483,35.22724 -112.30266,63.62168 -154.1266,70.59233 -35.04211,5.84036 -70.72382,-5.86078 -105.8885,0 -31.29745,5.21624 -52.30872,8.08281 -84.12253,12.05953 -32.80884,4.1011 -124.3323,37.13935 -132.65476,66.91565 -5.82039,20.8243 -29.83135,-1.10659 -19.41289,30.14881 3.32251,9.96754 -0.92294,54.81452 12.35365,47.06155 7.86874,-4.595 42.80234,-13.86717 51.47358,-19.11875 26.64479,-16.13693 48.05557,-31.38116 58.23868,-36.47271 34.21646,-17.10824 47.79718,-19.43394 86.76974,-25.00145 101.38026,-14.4829 145.47059,60.42371 221.48345,-15.58914 9.52103,-9.52104 97.23317,-53.02906 106.47677,-64.12137 5.13969,-6.16763 28.3673,-34.24999 33.53136,-39.41406 2.89772,-2.89771 7.57509,-13.31296 8.82404,-17.05981 2.89804,-8.69412 17.26373,-36.55508 5.8827,-35.29617 -50.51249,5.58745 20.24304,-28.63827 -8.23578,-22.9425 z"
       sodipodi:nodetypes="cssssssssssssssssc"
       transform="translate(2.4958159,-0.83193864)" />
    <path
       style="opacity:1;fill:#000000;fill-opacity:1;stroke:#000000;stroke-width:1;stroke-dasharray:none;stroke-opacity:1"
       d="m 225.87134,739.38547 c -0.88341,-6.32737 0.066,-12.89988 2.70381,-18.71862 2.77505,-6.12138 7.29652,-11.27648 12.06311,-16.01482 5.33053,-5.29894 11.04403,-10.19767 16.84675,-14.97489 9.48918,-7.81218 19.24478,-15.32251 29.53382,-22.04638 32.54933,-21.27092 70.20706,-34.37461 108.77598,-39.3091 50.72871,-6.49021 102.24281,0.91394 153.28469,-2.28783 29.45886,-1.8479 58.846,-7.28872 86.31364,-18.09467 17.68529,-6.95751 34.45494,-16.08488 50.54027,-26.20607 18.58188,-11.69207 36.34295,-24.76604 52.41213,-39.72507 7.49528,-6.97746 14.84682,-14.51709 24.22606,-18.62732 4.68962,-2.05512 9.85132,-3.18667 14.95151,-2.7349 5.1002,0.45177 10.12672,2.56867 13.65054,6.28334 3.43808,3.62428 5.26853,8.52114 6.10906,13.4455 0.84053,4.92435 0.77369,9.95069 0.91042,14.9444 0.19237,7.02551 0.78323,14.15436 -0.77994,21.00646 -1.94451,8.52371 -7.07988,15.96255 -12.68707,22.67032 -17.70771,21.18341 -40.87917,37.1203 -64.89122,50.74826 -31.03725,17.61509 -64.18354,31.89128 -99.00069,39.72507 -29.9929,6.74834 -60.83293,8.64969 -91.51325,10.60721 -18.42214,1.1754 -36.86675,2.37944 -55.32392,2.07985 -23.33706,-0.37879 -46.88432,-3.14676 -69.88284,0.83194 -10.67902,1.84745 -21.04994,5.12362 -31.40569,8.31939 -13.09956,4.04251 -26.32411,8.00714 -38.47716,14.35094 -12.72472,6.6422 -24.02805,15.78034 -34.10948,25.99808 -6.59046,6.67957 -12.88249,13.98648 -21.21444,18.30266 -9.08402,4.70578 -20.18972,5.3274 -29.74181,1.66387 -6.54887,-2.5117 -12.3391,-6.96533 -16.44708,-12.65047 -4.10797,-5.68514 -6.51855,-12.58085 -6.8472,-19.58715 z"
       id="path25"
       inkscape:path-effect="#path-effect25"
       inkscape:original-d="m 225.87134,739.38547 c -4.5742,-13.86915 -4.02047,-5.27007 2.70381,-18.71862 1.3882,-2.77641 11.11578,-13.17285 12.06311,-16.01482 1.24284,-3.72852 12.07492,-14.09961 16.84675,-14.97489 40.28845,-7.39002 22.1793,-14.69186 29.53382,-22.04638 50.93447,-50.93447 -179.32262,27.8047 108.77598,-39.3091 31.89881,-7.43096 105.69718,38.77113 153.28469,-2.28783 13.64839,-11.77596 71.21163,-8.02666 86.31364,-18.09467 3.79827,-2.53218 46.3968,-24.82491 50.54027,-26.20607 11.10986,-3.70328 43.62362,-30.93655 52.41213,-39.72507 5.70522,-5.70522 46.44993,-9.97634 52.82811,-15.07888 5.79178,-4.63342 52.617,75.43169 7.01948,28.3899 -4.78807,-4.93973 -6.94985,8.66664 -0.77994,21.00646 10.38432,20.76864 1.90554,0.78141 -12.68707,22.67032 -15.62688,23.44033 -42.5854,35.5651 -64.89122,50.74826 -75.75801,51.56711 -61.20215,24.24477 -99.00069,39.72507 -79.25634,32.45924 -90.13256,-6.89403 -91.51325,10.60721 -2.28253,28.93251 -26.06975,3.90824 -55.32392,2.07985 -21.8592,-1.3662 -47.95401,-0.99546 -69.88284,0.83194 -16.75328,1.39611 -15.92228,1.86797 -31.40569,8.31939 -18.21965,7.59152 -20.81174,5.51823 -38.47716,14.35094 -7.83762,3.91881 -26.25755,22.07211 -34.10948,25.99808 -13.79078,6.89539 -5.7881,14.44607 -21.21444,18.30266 -3.1402,0.78505 -26.21014,2.8411 -29.74181,1.66387 -7.22328,-2.40776 -26.18905,-25.00069 -23.29428,-32.23762 z"
       sodipodi:nodetypes="csssssssssssssssssssssssc" />
    <path
       style="opacity:1;mix-blend-mode:normal;fill:#000000;fill-opacity:1;stroke:#000000;stroke-width:1;stroke-dasharray:none;stroke-opacity:1"
       d="m 303.54704,807.98809 c -0.20954,11.41252 4.39534,22.68733 11.89589,31.29147 9.33953,10.7137 22.55374,17.16116 35.63105,22.7284 36.0205,15.33456 74.19766,26.19427 113.23828,29.10201 32.31466,2.4068 65.03002,-0.67865 96.32944,-9.06771 27.89876,-7.47759 54.6453,-19.14692 79.27975,-34.22668 31.08966,-19.03126 58.81214,-43.50219 81.76946,-71.8168 7.70999,-9.50918 14.89055,-19.45246 21.38568,-29.82944 6.2032,-9.91057 11.77422,-20.20432 17.0746,-30.6257 3.59501,-7.06835 7.13548,-14.44994 7.54132,-22.36959 0.20292,-3.95983 -0.41445,-8.00266 -2.12824,-11.57818 -1.71378,-3.57552 -4.56881,-6.65655 -8.16734,-8.32148 -4.15961,-1.92453 -9.01718,-1.85826 -13.46617,-0.75705 -4.44899,1.10121 -8.58873,3.16748 -12.71182,5.16907 -21.0109,10.19992 -42.64418,19.11048 -64.70965,26.76627 -14.86889,5.15888 -29.94869,9.75249 -45.29675,13.23605 -51.49068,11.68687 -104.86702,10.68166 -157.65621,11.76539 -23.05036,0.47321 -46.2085,1.36882 -68.82826,5.82861 -22.61975,4.45979 -44.82928,12.64625 -63.23823,26.52622 -7.43857,5.60853 -14.25674,12.16999 -19.35398,19.96782 -5.09724,7.79783 -8.4178,16.89688 -8.58882,26.21132 z"
       id="path26"
       inkscape:path-effect="#path-effect26"
       inkscape:original-d="m 303.54704,807.98809 c -13.64987,16.15758 -9.10889,48.05804 11.89589,31.29147 17.03545,-13.59815 43.91274,31.69285 35.63105,22.7284 -35.08642,-37.979 59.92087,36.71879 113.23828,29.10201 21.37051,-3.05293 75.79852,-4.96152 96.32944,-9.06771 16.21946,-3.24389 65.00662,-24.71126 79.27975,-34.22668 25.84903,-17.23269 62.04926,-48.15257 81.76946,-71.8168 6.5712,-7.88545 16.05106,-20.9384 21.38568,-29.82944 6.219,-10.365 23.83889,-17.09713 17.0746,-30.6257 -11.09782,-22.19565 9.99827,-48.64552 -2.75426,-42.26925 -6.734,3.36699 -18.99964,2.36106 -26.17799,4.41202 -19.86,5.67428 -44.40171,21.68928 -64.70965,26.76627 -11.83099,2.95774 -32.97131,11.47528 -45.29675,13.23605 -52.0291,7.43273 -104.77709,11.76539 -157.65621,11.76539 -44.96712,0 -91.44483,14.30075 -132.06649,32.35483 -9.81789,4.3635 -17.29257,34.31272 -27.9428,46.17914 z"
       sodipodi:nodetypes="cssssssssssssssc" />
  </g>
</svg>
